<svg xmlns="http://www.w3.org/2000/svg" viewBox="0 0 64 64" width="64" height="64">
  <defs>
    <linearGradient id="crownGradient" x1="0%" y1="0%" x2="100%" y2="100%">
      <stop offset="0%" style="stop-color:#fbbf24;stop-opacity:1" />
      <stop offset="50%" style="stop-color:#f59e0b;stop-opacity:1" />
      <stop offset="100%" style="stop-color:#d97706;stop-opacity:1" />
    </linearGradient>
    <linearGradient id="gemGradient" x1="0%" y1="0%" x2="100%" y2="100%">
      <stop offset="0%" style="stop-color:#8b5cf6;stop-opacity:1" />
      <stop offset="100%" style="stop-color:#6366f1;stop-opacity:1" />
    </linearGradient>
  </defs>
  
  <!-- Background circle -->
  <circle cx="32" cy="32" r="30" fill="url(#crownGradient)" stroke="#d97706" stroke-width="2"/>
  
  <!-- Crown base -->
  <path d="M12 45 L52 45 L50 38 L14 38 Z" fill="url(#crownGradient)" stroke="#b45309" stroke-width="1"/>
  
  <!-- Crown spikes -->
  <path d="M14 38 L18 22 L22 38" fill="url(#crownGradient)" stroke="#b45309" stroke-width="1"/>
  <path d="M22 38 L28 18 L34 38" fill="url(#crownGradient)" stroke="#b45309" stroke-width="1"/>
  <path d="M34 38 L40 18 L46 38" fill="url(#crownGradient)" stroke="#b45309" stroke-width="1"/>
  <path d="M46 38 L50 22 L54 38" fill="url(#crownGradient)" stroke="#b45309" stroke-width="1"/>
  
  <!-- Central gem -->
  <circle cx="32" cy="28" r="4" fill="url(#gemGradient)" stroke="#4f46e5" stroke-width="1"/>
  
  <!-- Side gems -->
  <circle cx="20" cy="30" r="2.5" fill="url(#gemGradient)" stroke="#4f46e5" stroke-width="0.5"/>
  <circle cx="44" cy="30" r="2.5" fill="url(#gemGradient)" stroke="#4f46e5" stroke-width="0.5"/>
  
  <!-- Highlights -->
  <path d="M16 24 L18 22 L20 24" fill="#fde047" opacity="0.7"/>
  <path d="M30 20 L32 18 L34 20" fill="#fde047" opacity="0.7"/>
  <path d="M44 24 L46 22 L48 24" fill="#fde047" opacity="0.7"/>
</svg>